<svg xmlns="http://www.w3.org/2000/svg" xmlns:xlink="http://www.w3.org/1999/xlink"><defs>
        <clipPath id="a">
            <path fill="#fff" transform="rotate(90 21.5 21.5)" d="M0 0h70v24H0z"/>
        </clipPath>
    </defs><symbol id="arrow-down" viewBox="0 0 62 92"><g fill="none">
    <path d="M9.787 40a29.837 29.837 0 0 0-8.21 15.297 29.76 29.76 0 0 0 1.707 17.26 29.902 29.902 0 0 0 11.049 13.408A30.089 30.089 0 0 0 31 91a30.089 30.089 0 0 0 16.667-5.035 29.902 29.902 0 0 0 11.05-13.407 29.76 29.76 0 0 0 1.706-17.262A29.836 29.836 0 0 0 52.213 40" stroke="#currentColor" stroke-width="2" stroke-linecap="round"/>
    <g clip-path="url(#a)" stroke="#currentColor" stroke-width="2" stroke-linecap="round" stroke-linejoin="round">
        <path d="M31 5v60M38 58l-7 7-7-7"/>
    </g>
    
</g></symbol><symbol id="arrow-left" viewBox="0 0 92 62"><g fill="none">
    <path d="M52 9.787a29.836 29.836 0 0 0-15.297-8.21 29.76 29.76 0 0 0-17.26 1.707A29.902 29.902 0 0 0 6.034 14.333 30.09 30.09 0 0 0 1 31a30.09 30.09 0 0 0 5.035 16.667 29.903 29.903 0 0 0 13.407 11.05 29.76 29.76 0 0 0 17.261 1.706A29.836 29.836 0 0 0 52 52.213" stroke="currentColor" stroke-width="2" stroke-linecap="round"/>
    <path d="M87 31H27M34 38l-7-7 7-7" stroke="currentColor" stroke-width="2" stroke-linecap="round" stroke-linejoin="round"/>
</g></symbol><symbol id="arrow-right" viewBox="0 0 92 62"><g fill="none">
    <path d="M40 52.213a29.836 29.836 0 0 0 15.297 8.21 29.76 29.76 0 0 0 17.26-1.707 29.902 29.902 0 0 0 13.408-11.049A30.089 30.089 0 0 0 91 31a30.089 30.089 0 0 0-5.035-16.667 29.902 29.902 0 0 0-13.407-11.05 29.76 29.76 0 0 0-17.262-1.707A29.837 29.837 0 0 0 40 9.786" stroke="currentColor" stroke-width="2" stroke-linecap="round"/>
    <path d="M5 31h60M58 24l7 7-7 7" stroke="currentColor" stroke-width="2" stroke-linecap="round" stroke-linejoin="round"/>
</g></symbol><symbol id="logo" viewBox="0 0 202 147"><g fill="none">
    <rect fill="#1F1E1E"/>
    <path d="M39.965 72.439H26.633V50.032h-.032v-.033h-4.686V73h18.05v-.561ZM43.932 73h18.117v-.561H48.618V61.285h10.494v-.594H48.618V50.56h13.43v-.561H43.933V73ZM70.7 73V50.56c2.87 0 11.714 1.089 12.374 13.893V73h4.686V49.999h-4.686v10.329C81.655 54.19 77.167 49.999 70.7 49.999h-4.686V73H70.7ZM97.39 73V50.56c2.87 0 11.714 1.089 12.374 13.893V73h4.686V49.999h-4.686v10.329c-1.419-6.138-5.907-10.329-12.375-10.329h-4.686V73h4.686ZM119.393 73h4.686V49.999h-4.686V73Z" fill="#fff"/>
    <path fill="#BC3324" d="M81 92h121v42H81z"/>
    <path d="M108.922 124h.54l2.94-8.55h8.55l3.33 8.55h4.47l-8.1-20.91h-4.53l-7.2 20.91Zm7.5-20.25 4.35 11.19h-8.19l3.84-11.19ZM132.644 103.09V124h4.26v-7.23h5.07l4.89 7.2h4.86l-5.16-7.65c3-.78 5.28-2.64 5.28-6.81 0-5.22-3.81-6.87-8.25-6.87-4.68 0-6.03 3.51-6.69 7.41v-6.96h-4.26Zm5.43 4.38c.81-2.94 2.91-4.14 4.77-4.29 4.47-.42 4.65 2.43 4.65 6.33 0 6.33-3.36 6.75-6.24 6.75h-4.35s-.12-4.14 1.17-8.79ZM162.084 103.6l.03 20.4h4.26v-20.4h8.61v-.51h-21.51v.51h8.61Z" fill="#fff"/>
</g></symbol><symbol id="tagree"><g fill="none">
    <path d="M5.98 13h-2.2c-.453 0-.88-.087-1.28-.26a3.322 3.322 0 0 1-1.04-.7 3.577 3.577 0 0 1-.7-1.06C.587 10.58.5 10.153.5 9.7V.98l2.4-.6V4.2h1.4l.6 2.4h-2v3.1a.87.87 0 0 0 .26.64c.173.173.38.26.62.26h1.6l.6 2.4ZM16.41 2.98V13h-2.4V8c0-.8-.28-1.48-.84-2.04-.56-.56-1.24-.84-2.04-.84-.387 0-.76.073-1.12.22a2.872 2.872 0 0 0-.92.62c-.56.56-.84 1.24-.84 2.04 0 .787.28 1.46.84 2.02.266.28.573.493.92.64.36.133.733.2 1.12.2.4 0 .76-.067 1.08-.2l.86 2.14c-.614.307-1.327.46-2.14.46a5.155 5.155 0 0 1-2.04-.4 5.079 5.079 0 0 1-1.6-1.14 5.215 5.215 0 0 1-1.06-1.68A5.492 5.492 0 0 1 5.85 8c0-.733.126-1.42.38-2.06.253-.64.606-1.2 1.06-1.68a4.82 4.82 0 0 1 1.6-1.12 4.943 4.943 0 0 1 2.04-.42c.653 0 1.233.1 1.74.3.506.2.953.453 1.34.76v-.8h2.4ZM28.07 12c0 .72-.14 1.4-.42 2.04-.267.64-.64 1.2-1.12 1.68-.48.48-1.04.86-1.68 1.14-.64.28-1.327.42-2.06.42-.6 0-1.167-.093-1.7-.28a5.309 5.309 0 0 1-1.48-.8l1.74-1.72c.426.267.906.4 1.44.4.813 0 1.493-.287 2.04-.86.56-.56.84-1.233.84-2.02V7.98c0-.773-.28-1.453-.84-2.04-.56-.56-1.24-.84-2.04-.84-.774 0-1.454.28-2.04.84-.56.587-.84 1.267-.84 2.04 0 .8.28 1.48.84 2.04.586.56 1.266.84 2.04.84.4 0 .76-.067 1.08-.2l.9 2.24c-.6.24-1.247.36-1.94.36h-.04c-.72 0-1.4-.133-2.04-.4-.64-.28-1.2-.66-1.68-1.14-.48-.48-.86-1.04-1.14-1.68a5.083 5.083 0 0 1-.42-2.06c0-.733.12-1.42.36-2.06.24-.64.573-1.2 1-1.68.44-.48.96-.853 1.56-1.12.613-.28 1.28-.42 2-.42.693 0 1.306.107 1.84.32.533.2 1 .453 1.4.76V3h2.4v9Zm3.604-8.24a5.2 5.2 0 0 1 1.26-.76c.48-.2 1.02-.3 1.62-.3v2.4c-.8 0-1.48.28-2.04.84-.56.587-.84 1.267-.84 2.04V13h-2.4V2.98h2.4v.78ZM42.636 9.2h-5.24c.133.307.327.58.58.82.28.28.593.493.94.64.347.133.713.2 1.1.2.547 0 1.033-.127 1.46-.38l2.5 1c-.48.56-1.06 1-1.74 1.32-.68.307-1.42.46-2.22.46-.733 0-1.42-.133-2.06-.4-.64-.28-1.2-.66-1.68-1.14-.48-.48-.86-1.04-1.14-1.68-.267-.64-.4-1.32-.4-2.04 0-.733.133-1.42.4-2.06.28-.64.66-1.2 1.14-1.68.48-.48 1.04-.853 1.68-1.12.64-.28 1.327-.42 2.06-.42.733 0 1.42.14 2.06.42a5.154 5.154 0 0 1 2.8 2.8c.28.64.42 1.327.42 2.06 0 .427-.047.827-.14 1.2h-2.52Zm-2.62-4.08c-.773 0-1.453.28-2.04.84a2.716 2.716 0 0 0-.58.84h5.24a2.713 2.713 0 0 0-.58-.84c-.56-.56-1.24-.84-2.04-.84ZM54.003 9.2h-5.24c.134.307.327.58.58.82.28.28.593.493.94.64.347.133.713.2 1.1.2.547 0 1.033-.127 1.46-.38l2.5 1c-.48.56-1.06 1-1.74 1.32-.68.307-1.42.46-2.22.46-.733 0-1.42-.133-2.06-.4-.64-.28-1.2-.66-1.68-1.14-.48-.48-.86-1.04-1.14-1.68-.267-.64-.4-1.32-.4-2.04 0-.733.133-1.42.4-2.06.28-.64.66-1.2 1.14-1.68.48-.48 1.04-.853 1.68-1.12.64-.28 1.327-.42 2.06-.42.733 0 1.42.14 2.06.42a5.154 5.154 0 0 1 2.8 2.8c.28.64.42 1.327.42 2.06 0 .427-.046.827-.14 1.2h-2.52Zm-2.62-4.08c-.773 0-1.453.28-2.04.84a2.716 2.716 0 0 0-.58.84h5.24a2.713 2.713 0 0 0-.58-.84c-.56-.56-1.24-.84-2.04-.84Z" fill="#1F1E1E"/>
</g></symbol></svg>