<svg width="57" height="18" viewBox="0 0 57 18" fill="none" xmlns="http://www.w3.org/2000/svg">
<path d="M5.98 13H3.78C3.32667 13 2.9 12.9133 2.5 12.74C2.1 12.5667 1.75333 12.3333 1.46 12.04C1.16667 11.7333 0.933333 11.38 0.76 10.98C0.586667 10.58 0.5 10.1533 0.5 9.7V0.98L2.9 0.379999V4.2H4.3L4.9 6.6H2.9V9.7C2.9 9.95333 2.98667 10.1667 3.16 10.34C3.33333 10.5133 3.54 10.6 3.78 10.6H5.38L5.98 13ZM16.4092 2.98V13H14.0092V8C14.0092 7.2 13.7292 6.52 13.1692 5.96C12.6092 5.4 11.9292 5.12 11.1292 5.12C10.7426 5.12 10.3692 5.19333 10.0092 5.34C9.66255 5.48667 9.35589 5.69333 9.08922 5.96C8.52922 6.52 8.24922 7.2 8.24922 8C8.24922 8.78667 8.52922 9.46 9.08922 10.02C9.35589 10.3 9.66255 10.5133 10.0092 10.66C10.3692 10.7933 10.7426 10.86 11.1292 10.86C11.5292 10.86 11.8892 10.7933 12.2092 10.66L13.0692 12.8C12.4559 13.1067 11.7426 13.26 10.9292 13.26C10.1959 13.26 9.51589 13.1267 8.88922 12.86C8.27589 12.58 7.74255 12.2 7.28922 11.72C6.83589 11.24 6.48255 10.68 6.22922 10.04C5.97589 9.4 5.84922 8.72 5.84922 8C5.84922 7.26667 5.97589 6.58 6.22922 5.94C6.48255 5.3 6.83589 4.74 7.28922 4.26C7.74255 3.78 8.27589 3.40667 8.88922 3.14C9.51589 2.86 10.1959 2.72 10.9292 2.72C11.5826 2.72 12.1626 2.82 12.6692 3.02C13.1759 3.22 13.6226 3.47333 14.0092 3.78V2.98H16.4092ZM28.0694 12C28.0694 12.72 27.9294 13.4 27.6494 14.04C27.3827 14.68 27.0094 15.24 26.5294 15.72C26.0494 16.2 25.4894 16.58 24.8494 16.86C24.2094 17.14 23.5227 17.28 22.7894 17.28C22.1894 17.28 21.6227 17.1867 21.0894 17C20.556 16.8133 20.0627 16.5467 19.6094 16.2L21.3494 14.48C21.776 14.7467 22.256 14.88 22.7894 14.88C23.6027 14.88 24.2827 14.5933 24.8294 14.02C25.3894 13.46 25.6694 12.7867 25.6694 12V7.98C25.6694 7.20667 25.3894 6.52667 24.8294 5.94C24.2694 5.38 23.5894 5.1 22.7894 5.1C22.016 5.1 21.336 5.38 20.7494 5.94C20.1894 6.52667 19.9094 7.20667 19.9094 7.98C19.9094 8.78 20.1894 9.46 20.7494 10.02C21.336 10.58 22.016 10.86 22.7894 10.86C23.1894 10.86 23.5494 10.7933 23.8694 10.66L24.7694 12.9C24.1694 13.14 23.5227 13.26 22.8294 13.26H22.7894C22.0694 13.26 21.3894 13.1267 20.7494 12.86C20.1094 12.58 19.5494 12.2 19.0694 11.72C18.5894 11.24 18.2094 10.68 17.9294 10.04C17.6494 9.4 17.5094 8.71333 17.5094 7.98C17.5094 7.24667 17.6294 6.56 17.8694 5.92C18.1094 5.28 18.4427 4.72 18.8694 4.24C19.3094 3.76 19.8294 3.38667 20.4294 3.12C21.0427 2.84 21.7094 2.7 22.4294 2.7C23.1227 2.7 23.736 2.80667 24.2694 3.02C24.8027 3.22 25.2694 3.47333 25.6694 3.78V3H28.0694V12ZM31.6742 3.76C32.0476 3.45333 32.4676 3.2 32.9342 3C33.4142 2.8 33.9542 2.7 34.5542 2.7V5.1C33.7542 5.1 33.0742 5.38 32.5142 5.94C31.9542 6.52667 31.6742 7.20667 31.6742 7.98V13H29.2742V7.98V2.98H31.6742V3.76ZM42.6359 9.2H37.3959C37.5293 9.50667 37.7226 9.78 37.9759 10.02C38.2559 10.3 38.5693 10.5133 38.9159 10.66C39.2626 10.7933 39.6293 10.86 40.0159 10.86C40.5626 10.86 41.0493 10.7333 41.4759 10.48L43.9759 11.48C43.4959 12.04 42.9159 12.48 42.2359 12.8C41.5559 13.1067 40.8159 13.26 40.0159 13.26C39.2826 13.26 38.5959 13.1267 37.9559 12.86C37.3159 12.58 36.7559 12.2 36.2759 11.72C35.7959 11.24 35.4159 10.68 35.1359 10.04C34.8693 9.4 34.7359 8.72 34.7359 8C34.7359 7.26667 34.8693 6.58 35.1359 5.94C35.4159 5.3 35.7959 4.74 36.2759 4.26C36.7559 3.78 37.3159 3.40667 37.9559 3.14C38.5959 2.86 39.2826 2.72 40.0159 2.72C40.7493 2.72 41.4359 2.86 42.0759 3.14C42.7159 3.40667 43.2759 3.78 43.7559 4.26C44.2359 4.74 44.6093 5.3 44.8759 5.94C45.1559 6.58 45.2959 7.26667 45.2959 8C45.2959 8.42667 45.2493 8.82667 45.1559 9.2H42.6359ZM40.0159 5.12C39.2426 5.12 38.5626 5.4 37.9759 5.96C37.7226 6.21333 37.5293 6.49333 37.3959 6.8H42.6359C42.5026 6.49333 42.3093 6.21333 42.0559 5.96C41.4959 5.4 40.8159 5.12 40.0159 5.12ZM54.0031 9.2H48.7631C48.8965 9.50667 49.0898 9.78 49.3431 10.02C49.6231 10.3 49.9365 10.5133 50.2831 10.66C50.6298 10.7933 50.9965 10.86 51.3831 10.86C51.9298 10.86 52.4165 10.7333 52.8431 10.48L55.3431 11.48C54.8631 12.04 54.2831 12.48 53.6031 12.8C52.9231 13.1067 52.1831 13.26 51.3831 13.26C50.6498 13.26 49.9631 13.1267 49.3231 12.86C48.6831 12.58 48.1231 12.2 47.6431 11.72C47.1631 11.24 46.7831 10.68 46.5031 10.04C46.2365 9.4 46.1031 8.72 46.1031 8C46.1031 7.26667 46.2365 6.58 46.5031 5.94C46.7831 5.3 47.1631 4.74 47.6431 4.26C48.1231 3.78 48.6831 3.40667 49.3231 3.14C49.9631 2.86 50.6498 2.72 51.3831 2.72C52.1165 2.72 52.8031 2.86 53.4431 3.14C54.0831 3.40667 54.6431 3.78 55.1231 4.26C55.6031 4.74 55.9765 5.3 56.2431 5.94C56.5231 6.58 56.6631 7.26667 56.6631 8C56.6631 8.42667 56.6165 8.82667 56.5231 9.2H54.0031ZM51.3831 5.12C50.6098 5.12 49.9298 5.4 49.3431 5.96C49.0898 6.21333 48.8965 6.49333 48.7631 6.8H54.0031C53.8698 6.49333 53.6765 6.21333 53.4231 5.96C52.8631 5.4 52.1831 5.12 51.3831 5.12Z" fill="#1F1E1E"/>
</svg>
